<?xml version="1.0" encoding="UTF-8" standalone="no"?>
<!-- Created with Inkscape (http://www.inkscape.org/) -->

<svg
   width="61.753109mm"
   height="24.60396mm"
   viewBox="0 0 61.753109 24.60396"
   version="1.1"
   id="svg2287"
   inkscape:version="1.1.2 (b8e25be833, 2022-02-05)"
   sodipodi:docname="logoPUCE_01_b.svg"
   xmlns:inkscape="http://www.inkscape.org/namespaces/inkscape"
   xmlns:sodipodi="http://sodipodi.sourceforge.net/DTD/sodipodi-0.dtd"
   xmlns="http://www.w3.org/2000/svg"
   xmlns:svg="http://www.w3.org/2000/svg">
  <sodipodi:namedview
     id="namedview2289"
     pagecolor="#ffffff"
     bordercolor="#666666"
     borderopacity="1.0"
     inkscape:pageshadow="2"
     inkscape:pageopacity="0.0"
     inkscape:pagecheckerboard="0"
     inkscape:document-units="mm"
     showgrid="false"
     fit-margin-top="1"
     fit-margin-right="1"
     fit-margin-bottom="1"
     fit-margin-left="1"
     inkscape:zoom="0.74029882"
     inkscape:cx="-143.86083"
     inkscape:cy="232.33861"
     inkscape:window-width="1366"
     inkscape:window-height="705"
     inkscape:window-x="-1374"
     inkscape:window-y="-8"
     inkscape:window-maximized="1"
     inkscape:current-layer="layer1" />
  <defs
     id="defs2284" />
  <g
     inkscape:label="Capa 1"
     inkscape:groupmode="layer"
     id="layer1"
     transform="translate(-108.50973,-115.64748)">
    <g
       id="g2397"
       inkscape:export-filename="d:\aemerinot\documentos\OneDrive\Diseño\Logos\LogosPUCE\logoPUCE_01_b.png"
       inkscape:export-xdpi="212.37872"
       inkscape:export-ydpi="212.37872">
      <path
         style="fill:#ffffff;fill-opacity:1;fill-rule:nonzero;stroke:none;stroke-width:0.352778"
         d="m 137.75537,127.93912 c 1.16858,0 1.73633,-0.52227 1.73633,-1.61368 0,-1.07487 -0.56775,-1.61368 -1.73633,-1.61368 h -1.53651 v 3.22736 z m 0.33762,-5.50112 c 2.41295,0 3.9343,1.50619 3.9343,3.88744 0,2.39779 -1.52135,3.90398 -3.9343,3.90398 h -1.87413 v 2.92007 c 0,0.18465 -0.0923,0.27698 -0.26183,0.27698 h -1.93614 c -0.1695,0 -0.26183,-0.0923 -0.26183,-0.27698 V 122.7136 c 0,-0.18328 0.0923,-0.2756 0.26183,-0.2756 z m 0,0"
         id="path1268" />
      <path
         style="fill:#ffffff;fill-opacity:1;fill-rule:nonzero;stroke:none;stroke-width:0.352778"
         d="m 147.26935,133.60975 c -2.70509,0 -4.2733,-1.53651 -4.2733,-4.22644 v -6.66971 c 0,-0.18328 0.0923,-0.2756 0.27699,-0.2756 h 1.9513 c 0.1695,0 0.27698,0.0923 0.27698,0.2756 v 6.66971 c 0,1.24574 0.62977,1.89067 1.76803,1.89067 1.13688,0 1.79834,-0.64493 1.79834,-1.89067 v -6.66971 c 0,-0.18328 0.0909,-0.2756 0.26045,-0.2756 h 1.96646 c 0.1695,0 0.26183,0.0923 0.26183,0.2756 v 6.66971 c 0,2.68993 -1.58199,4.22644 -4.28708,4.22644"
         id="path1270" />
      <path
         style="fill:#ffffff;fill-opacity:1;fill-rule:nonzero;stroke:none;stroke-width:0.352778"
         d="m 157.42825,133.64145 c -2.70509,0 -4.4869,-1.42903 -4.4869,-4.1038 v -3.21221 c 0,-2.67339 1.79834,-4.08726 4.44142,-4.08726 1.22921,0 2.41157,0.36794 3.288,0.98254 0.15434,0.0923 0.1695,0.21636 0.0772,0.35416 l -0.96876,1.4745 c -0.10749,0.15434 -0.23013,0.1695 -0.3831,0.0772 -0.56913,-0.36794 -1.29121,-0.55259 -1.96783,-0.55259 -1.29123,0 -1.98162,0.73725 -1.98162,1.84381 v 3.01239 c 0,1.18374 0.73725,1.85898 1.99678,1.85898 0.76894,0 1.52135,-0.23014 2.13733,-0.64493 0.15296,-0.10748 0.27561,-0.0923 0.36794,0.062 l 0.98392,1.47451 c 0.0923,0.13918 0.0923,0.26182 -0.0152,0.33899 -0.89159,0.66008 -2.06017,1.12173 -3.48919,1.12173"
         id="path1272" />
      <path
         style="fill:#ffffff;fill-opacity:1;fill-rule:nonzero;stroke:none;stroke-width:0.352778"
         d="m 164.42179,131.19681 h 4.56406 c 0.1695,0 0.27699,0.0923 0.27699,0.26183 v 1.69085 c 0,0.18465 -0.10749,0.27698 -0.27699,0.27698 h -6.76203 c -0.18466,0 -0.27699,-0.0923 -0.27699,-0.27698 V 122.7136 c 0,-0.18328 0.0923,-0.2756 0.27699,-0.2756 h 6.51674 c 0.18466,0 0.27561,0.0923 0.27561,0.2756 v 1.69086 c 0,0.1695 -0.0909,0.26182 -0.27561,0.26182 h -4.31877 v 2.10565 h 3.81165 c 0.18466,0 0.27699,0.0923 0.27699,0.26045 v 1.66053 c 0,0.16812 -0.0923,0.26045 -0.27699,0.26045 h -3.81165 z m 0,0"
         id="path1274" />
      <path
         style="fill:#ffffff;fill-opacity:1;fill-rule:nonzero;stroke:none;stroke-width:0.352778"
         d="m 119.94561,118.96672 c -1.53238,0.14607 -2.95314,0.67386 -4.16581,1.48966 -0.16261,0.11024 -0.32108,0.22462 -0.4768,0.34451 l 0.58566,0.58429 c 0.1571,-0.11714 0.31833,-0.23014 0.48369,-0.33625 0.72485,-0.46853 1.52963,-0.82406 2.38814,-1.04593 v 5.07532 l 0.40928,0.40928 v -5.57693 c 0.2701,-0.0551 0.54295,-0.0965 0.82131,-0.12402 v 6.52226 l 0.81993,0.81993 0.82132,-0.81993 v -6.52226 c 0.27698,0.0275 0.55121,0.0689 0.81993,0.12402 v 5.57693 l 0.41066,-0.40928 V 120.003 c 0.85851,0.22187 1.66191,0.5774 2.38814,1.04593 0.16536,0.10611 0.32659,0.21911 0.48369,0.33625 l 0.58428,-0.58429 c -0.15434,-0.11989 -0.31419,-0.23427 -0.4768,-0.34451 -1.21129,-0.8158 -2.63343,-1.34359 -4.16581,-1.48966 l -0.86541,-2.31924 -0.8654,2.31924"
         id="path1276" />
      <path
         style="fill:#ffffff;fill-opacity:1;fill-rule:nonzero;stroke:none;stroke-width:0.352778"
         d="m 121.67642,136.9322 c 1.53238,-0.14607 2.95452,-0.67386 4.16719,-1.48966 0.16261,-0.10886 0.32108,-0.22462 0.47542,-0.34451 l -0.58428,-0.58429 c -0.1571,0.11714 -0.31833,0.23014 -0.4837,0.33625 -0.72622,0.46853 -1.52962,0.82407 -2.38814,1.04455 v -5.07256 l -0.41065,-0.41065 v 5.57692 c -0.26872,0.0551 -0.54295,0.0965 -0.81993,0.12402 v -6.52226 l -0.82132,-0.81993 -0.81993,0.81993 v 6.52226 c -0.27836,-0.0275 -0.55121,-0.0689 -0.82131,-0.12402 v -5.57692 l -0.40928,0.40927 v 5.07532 c -0.85851,-0.22186 -1.66329,-0.5774 -2.38814,-1.04593 -0.16536,-0.10611 -0.32659,-0.21911 -0.48369,-0.33625 l -0.58566,0.58567 c 0.15572,0.11851 0.31419,0.23427 0.4768,0.34313 1.21267,0.8158 2.63343,1.34359 4.16718,1.48966 l 0.86403,2.31924 0.86541,-2.31924"
         id="path1278" />
      <path
         style="fill:#ffffff;fill-opacity:1;fill-rule:nonzero;stroke:none;stroke-width:0.352778"
         d="m 111.82896,128.81418 c 0.14607,1.53376 0.67386,2.95451 1.48966,4.16719 0.10887,0.16261 0.22462,0.32108 0.34313,0.4768 l 0.58567,-0.58567 c -0.11713,-0.15709 -0.23013,-0.31832 -0.33624,-0.48369 -0.46854,-0.72485 -0.82407,-1.52962 -1.04593,-2.38814 h 5.07669 l 0.40928,-0.41066 h -5.57968 c -0.0537,-0.26871 -0.0951,-0.54156 -0.12265,-0.81993 h 6.52088 l 0.82131,-0.81993 -0.82131,-0.82131 h -6.52088 c 0.0276,-0.27699 0.0689,-0.55122 0.12265,-0.81993 h 5.57968 l -0.40928,-0.41066 h -5.07669 c 0.22186,-0.85852 0.57739,-1.66191 1.04593,-2.38814 0.10611,-0.16536 0.21773,-0.32659 0.33624,-0.48369 l -0.58567,-0.58429 c -0.11851,0.15434 -0.23426,0.31282 -0.34313,0.47542 -0.8158,1.21268 -1.34359,2.63481 -1.48966,4.16719 l -2.31923,0.86541 2.31923,0.86403"
         id="path1280" />
      <path
         style="fill:#ffffff;fill-opacity:1;fill-rule:nonzero;stroke:none;stroke-width:0.352778"
         d="m 129.79445,128.81418 c -0.14608,1.53376 -0.67386,2.95451 -1.48966,4.16719 -0.11025,0.16261 -0.22462,0.32108 -0.34451,0.4768 l -0.58567,-0.58567 c 0.11851,-0.15709 0.23014,-0.31832 0.33762,-0.48369 0.46715,-0.72485 0.82407,-1.52962 1.04455,-2.38814 h -5.07531 l -0.41066,-0.41066 h 5.57968 c 0.0537,-0.26871 0.0965,-0.54156 0.12402,-0.81993 h -6.52225 l -0.81993,-0.81993 0.81993,-0.82131 h 6.52225 c -0.0276,-0.27699 -0.0703,-0.55122 -0.12402,-0.81993 h -5.57968 l 0.41066,-0.41066 h 5.07531 c -0.22048,-0.85852 -0.57739,-1.66191 -1.04455,-2.38814 -0.10748,-0.16536 -0.21911,-0.32659 -0.33762,-0.48369 l 0.58567,-0.58429 c 0.11989,0.15434 0.23426,0.31282 0.34451,0.47542 0.8158,1.21268 1.34358,2.63481 1.48966,4.16719 l 2.31924,0.86541 -2.31924,0.86403"
         id="path1282" />
    </g>
  </g>
</svg>
