<?xml version="1.0" encoding="UTF-8" standalone="no"?>
<svg
   xmlns:dc="http://purl.org/dc/elements/1.1/"
   xmlns:cc="http://creativecommons.org/ns#"
   xmlns:rdf="http://www.w3.org/1999/02/22-rdf-syntax-ns#"
   xmlns:svg="http://www.w3.org/2000/svg"
   xmlns="http://www.w3.org/2000/svg"
   xmlns:sodipodi="http://sodipodi.sourceforge.net/DTD/sodipodi-0.dtd"
   xmlns:inkscape="http://www.inkscape.org/namespaces/inkscape"
   inkscape:export-ydpi="118.74865"
   inkscape:export-xdpi="118.74865"
   inkscape:export-filename="C:\Users\matea\Desktop\Dropbox\aleph_0\Diseños\Logo\Alephsub0\LogoAleph0-grande.png"
   inkscape:version="1.0 (4035a4fb49, 2020-05-01)"
   height="278.10001"
   width="968.94678"
   sodipodi:docname="LogoAleph0-grande.svg"
   xml:space="preserve"
   enable-background="new 0 0 1200 628"
   viewBox="0 0 968.94678 278.10001"
   y="0px"
   x="0px"
   id="Layer_1"
   version="1.1"><metadata
   id="metadata21"><rdf:RDF><cc:Work
       rdf:about=""><dc:format>image/svg+xml</dc:format><dc:type
         rdf:resource="http://purl.org/dc/dcmitype/StillImage" /><dc:title></dc:title></cc:Work></rdf:RDF></metadata><defs
   id="defs19" /><sodipodi:namedview
   inkscape:current-layer="Layer_1"
   inkscape:window-maximized="1"
   inkscape:window-y="-8"
   inkscape:window-x="-8"
   inkscape:cy="108.6"
   inkscape:cx="224.65638"
   inkscape:zoom="0.85583333"
   fit-margin-bottom="0"
   fit-margin-right="0"
   fit-margin-left="0"
   fit-margin-top="0"
   showgrid="false"
   id="namedview17"
   inkscape:window-height="705"
   inkscape:window-width="1360"
   inkscape:pageshadow="2"
   inkscape:pageopacity="0"
   guidetolerance="10"
   gridtolerance="10"
   objecttolerance="10"
   borderopacity="1"
   bordercolor="#666666"
   pagecolor="#ffffff" />
<path
   id="path2"
   d="m 128.4,179.7 c 13.9,15.8 14.8,25.7 15.1,31.2 0.3,2.2 1.9,3.1 3.1,3.1 1.5,0 8,-3.7 8,-19.8 0,-5.9 0,-12.1 -15.5,-30.9 l -18.2,-21 12.1,-80.4 c 0.9,0.9 9.6,10.5 10.5,21.6 0,1.2 0.3,4 3.1,4 1.5,0 8,-3.7 8,-19.8 0,-10.5 -2.5,-14.8 -16.7,-27.8 C 130.5,33.4 116.3,8.7 114.1,3.1 113.5,1.6 112.9,0 111,0 c -1.5,0 -8,3.7 -8,19.8 0,9.6 3.1,16.1 20.7,33.1 -0.6,9 -1.2,17.3 -4.9,38 -4.9,27.5 -5.3,30 -6.5,41.4 L 26.4,34.3 C 12.5,18.5 11.6,8.7 11.2,3.1 10.9,0.9 9.4,0 8.1,0 c -1.5,0 -8,3.7 -8,19.8 0,5.9 0,12 15.5,30.9 l 18.2,21 c -16.1,25.3 -25,47.6 -25,68 0,10.2 2.8,17.3 10.8,32.5 4.9,9 7.7,16.7 7.7,23.2 0,3.4 0,11.4 -22,12 -3.1,0 -5.3,0 -5.3,3.4 0,3.4 2.8,3.4 8.3,3.4 h 17.3 c 8.3,0 31.5,-0.6 31.5,-18.2 0,-11.7 -7.1,-20.4 -14.2,-29 -12.7,-15.1 -13.6,-19.5 -13.6,-29 0,-12.1 1.5,-37.1 11.4,-58.1 z m 0,0"
   fill="#355492" />
<path
   id="path4"
   d="m 210.4,218.8 c 0,-10.7 -0.2,-29 -7.6,-43.1 -6.5,-12.3 -16.9,-16.7 -26,-16.7 -8.4,0 -19.2,3.9 -25.8,16.5 -7,13.2 -7.7,29.5 -7.7,43.3 0,10 0.2,25.3 5.6,38.7 7.6,18.1 21.1,20.6 28,20.6 8.1,0 20.4,-3.3 27.6,-20.1 5.2,-12.1 5.9,-26.3 5.9,-39.2 m -33.6,56.5 c -11.3,0 -17.9,-9.7 -20.4,-23 -1.9,-10.4 -1.9,-25.5 -1.9,-35.3 0,-13.5 0,-24.8 2.3,-35.5 3.3,-14.9 13.2,-19.5 20,-19.5 7.2,0 16.5,4.7 19.9,19.2 2.3,10 2.5,21.8 2.5,35.9 0,11.4 0,25.5 -2.1,35.9 -3.8,18.9 -14.2,22.3 -20.3,22.3"
   fill="#355492" />
<path
   id="path6"
   d="m 328.6,88.7 c 0,-18.1 -10.2,-35 -30,-35 -24.4,0 -48.8,26.6 -48.8,53.1 0,16.2 10.1,30.9 29.1,30.9 11.5,0 25.3,-4.5 38.6,-15.6 2.6,10.4 8.4,15.6 16.4,15.6 10.1,0 15.1,-10.4 15.1,-12.9 0,-1.7 -1.3,-1.7 -1.9,-1.7 -1.5,0 -1.7,0.6 -2.2,2.1 -1.7,4.7 -6,8.8 -10.4,8.8 -5.8,0 -5.8,-11.9 -5.8,-23.3 19,-22.7 23.5,-46.2 23.5,-46.4 0,-1.7 -1.5,-1.7 -2,-1.7 -1.7,0 -1.9,0.6 -2.6,3.9 -2.4,8.2 -7.3,22.7 -18.8,38 V 88.7 Z m -11.7,28.9 c -16.4,14.7 -31.1,16.4 -37.6,16.4 -13.2,0 -17,-11.7 -17,-20.5 0,-8 4.1,-27 9.9,-37.3 7.6,-13 18.1,-18.8 26.4,-18.8 18.1,0 18.1,23.7 18.1,39.3 0,4.7 -0.2,9.5 -0.2,14.2 0,3.7 0.2,4.6 0.4,6.7 m 59.8,-13.5 C 365,115.6 362,118.4 362,119.2 c 0,0.7 0.7,2.1 2.1,2.1 0.9,0 11.5,-10.2 13,-11.9 1.1,12.5 5.8,28.7 20.3,28.7 7.5,0 14.2,-4.7 17.1,-6.9 2.4,-1.9 11.4,-9.5 11.4,-11.2 0,-0.9 -0.9,-2 -1.9,-2 -0.7,0 -3.5,2.8 -4.3,3.5 -6.5,6.3 -14.7,12.9 -22.2,12.9 -10.1,0 -11.4,-14.5 -11.4,-24.6 0,-1.9 0,-9.7 1.3,-11.2 11,-11.4 45.4,-46.9 45.4,-79.9 0,-7.5 -2.8,-14 -10.8,-14 -17.3,0 -32.4,38.4 -35,45.4 -0.7,1.9 -11.5,30.6 -10.3,54 m 11.1,-11.5 c 0.2,-1.1 8.6,-49.9 24.2,-76 3.2,-5 6.3,-8.2 10.1,-8.2 6.3,0 6.7,6 6.7,10.1 0,6.5 -1.9,23.3 -18.1,46.8 -4.8,6.8 -12.2,16.1 -22.9,27.3 m 74.2,0.7 c 6,2.4 12.3,2.4 15.8,2.4 4.8,0 14.5,0 14.5,-5.4 0,-3.4 -3.5,-4.7 -13,-4.7 -4.7,0 -10.2,0.6 -16.8,3.4 -5.8,-2.8 -8,-7.1 -8,-11.2 0,-11.6 18.3,-18.3 34.8,-18.3 3.2,0 9.9,0 17.7,5.8 1.1,0.7 1.7,1.3 3,1.3 2.2,0 4.7,-2.4 4.7,-4.7 0,-3.4 -10.8,-10.4 -23.7,-10.4 -20.9,0 -40.6,12.5 -40.6,26.3 0,6.9 4.5,11.2 7.6,13.4 -10.8,6.2 -17.1,16.2 -17.1,25.3 0,12.9 11.6,23.1 29.4,23.1 24.6,0 34.5,-16.4 34.5,-19 0,-0.9 -0.7,-1.7 -1.7,-1.7 -0.9,0 -1.3,0.6 -2.1,1.7 -2,3.5 -6.9,11 -29.1,11 -11.6,0 -26.8,-3 -26.8,-16.2 0.1,-6.2 4.8,-15.7 16.9,-22.1 m 5.8,-2.2 c 5,-1.7 9.9,-1.7 11.2,-1.7 5.2,0 6.1,0.4 9.1,1.1 -3.2,1.5 -3.5,1.5 -10.2,1.5 -3.4,0 -6.4,0 -10.1,-0.9 m 77.2,22.2 c 11.6,-26.5 33.3,-49.9 58.1,-49.9 9.3,0 13.4,7.8 13.4,18.1 0,8 -3.7,25.3 -9.7,36.1 -4.7,8.4 -12.9,16.4 -21.6,16.4 -3.7,0 -12.3,-1.7 -12.3,-11.9 2.6,-0.6 3.7,-2.4 3.7,-4.1 0,-2.1 -1.5,-3.2 -3.2,-3.2 -4.7,0 -4.7,5.8 -4.7,7.6 0,10.2 8,15.3 16.4,15.3 20.5,0 41.9,-25.1 41.9,-50.5 0,-14 -7.8,-27.6 -23.7,-27.6 -11.4,0 -24,4.3 -37.1,16.4 -7.1,6.3 -14.9,15.5 -24.2,33.5 -4.5,-5 -4.5,-11 -4.5,-13.6 0,-14 8.9,-38 21.8,-40.6 1.1,-0.2 2.2,-0.4 2.2,-2.2 0,-0.2 0,-1.5 -2.1,-1.5 -13.2,0 -30,25.7 -30,49.5 0,9.7 2.1,12.5 7.8,20.1 -6.5,18.6 -9.1,34.5 -9.1,40.2 0,7.6 3,14.3 11.7,14.3 12.3,0 24.2,-16 24.2,-30.4 0,-6.7 -1.7,-8.9 -8,-17.5 -2.2,-3 -8.6,-11.2 -11,-14.5 m -2.6,11.9 13.6,17.7 c 2.1,3 2.2,5.2 2.2,7.8 0,10.8 -8.2,21.4 -16,21.4 -5.2,0 -7.6,-3.7 -7.6,-10.8 -0.1,-8.5 5.2,-28.7 7.8,-36.1"
   stroke-miterlimit="10"
   stroke-width="4"
   stroke="#355492"
   fill="#355492" />
<path
   id="path8"
   d="m 675,170 3.1,2.7 c 11.9,-9.2 22.8,-19.4 31.4,-32 4.8,-16.1 5.2,-35.3 5.2,-53.1 0,-10.9 -0.6,-21.8 -1.3,-32.8 -8,-2.5 -15.9,-5.9 -22.2,-11.7 -9.6,6.7 -22,15.5 -28.4,20.5 L 663,42.5 c 0,-10.5 1.2,-23 17.2,-37.7 l -3.3,-2.1 c -0.2,0 -15.5,11.1 -23.2,16.9 L 649.1,5 646.8,5.4 c 1,15.5 1.2,31.2 1.2,46.7 0,23.4 -0.8,46.8 -2.1,70.1 l 10.5,17.4 15.7,-14.4 -10.4,-14.6 1,-41.2 c 4.8,-3.8 12.1,-9.4 18,-9.4 6.3,0 11.9,3.3 16.9,6.9 0.8,10.3 1.9,25.5 1.9,30.8 0,19.9 0.8,52.3 -12.3,61.7 z m 0,0"
   stroke-miterlimit="10"
   stroke="#355492"
   fill="#355492" />
<polyline
   transform="translate(-117.7,-205.4)"
   id="polyline10"
   points="845.4,338.2 896.7,338.2 896.7,341.2   845.4,341.2 "
   stroke-miterlimit="10"
   stroke-width="4"
   stroke="#355492"
   fill="#355492" />
<path
   id="path12"
   d="M 864,71.1 C 864,58.8 863.8,37.9 855.4,21.9 848,7.8 836.1,2.8 825.7,2.8 c -9.6,0 -21.9,4.4 -29.5,18.9 -8,15.1 -8.8,33.8 -8.8,49.4 0,11.4 0.2,28.9 6.4,44.2 8.6,20.7 24.1,23.5 31.9,23.5 9.2,0 23.3,-3.8 31.5,-22.9 6,-13.9 6.8,-30.2 6.8,-44.8 m -38.4,64.5 c -12.9,0 -20.5,-11 -23.3,-26.3 -2.2,-11.9 -2.2,-29.1 -2.2,-40.4 0,-15.5 0,-28.3 2.6,-40.6 C 806.5,11.2 817.8,6 825.6,6 c 8.2,0 18.9,5.4 22.7,21.9 2.6,11.5 2.8,24.9 2.8,41 0,13.1 0,29.1 -2.4,41 -4.2,21.9 -16.1,25.7 -23.1,25.7"
   stroke-miterlimit="10"
   stroke-width="2"
   stroke="#355492"
   fill="#355492" />
<text
   y="247.04581"
   x="249.8045"
   id="text14"
   font-size="58.2896px"
   font-family="Palatino-Roman"
   fill="#355492"><tspan
     id="tspan23"
     style="font-style:normal;font-variant:normal;font-weight:normal;font-stretch:normal;font-family:'Palatino Linotype';-inkscape-font-specification:'Palatino Linotype'">Más que simple matemática</tspan></text>
</svg>
